<svg width="758" height="293" viewBox="0 0 758 293" fill="none" xmlns="http://www.w3.org/2000/svg">
<g clip-path="url(#clip0_2_42)">
<mask id="mask0_2_42" style="mask-type:luminance" maskUnits="userSpaceOnUse" x="0" y="0" width="758" height="293">
<path d="M757.78 0H0V292.06H757.78V0Z" fill="white"/>
</mask>
<g mask="url(#mask0_2_42)">
<path d="M168.73 100.47C175.39 101.28 183.04 101.85 190.52 103.3C193.403 103.989 195.91 105.762 197.52 108.25C206.37 123.61 210.36 140.5 211.94 157.99C212.1 159.72 210.85 161.99 209.56 163.37C197.821 175.79 183.825 185.863 168.32 193.05C167.323 193.463 166.254 193.676 165.175 193.676C164.096 193.676 163.027 193.463 162.03 193.05C146.15 185.05 132.6 173.8 120.11 161.27C118.83 159.99 118.35 157.06 118.71 155.11C121.81 138.27 126.92 122.05 135.32 107.05C135.943 106.071 136.758 105.227 137.715 104.571C138.672 103.915 139.752 103.458 140.89 103.23C149.73 102.06 158.73 101.42 168.73 100.47Z" fill="#2AA62F"/>
<path d="M21.32 138.27C32.01 152.87 41.39 165.65 50.73 178.45C51.1912 179.056 51.4532 179.789 51.48 180.55C50.96 195.99 50.37 211.43 49.78 227.19C38.3599 226.61 27.3691 222.652 18.2 215.82C17.0724 214.794 16.1818 213.535 15.59 212.13C8.00999 197.95 4.01999 182.62 1.49999 166.88C1.30686 165.006 1.80082 163.127 2.88999 161.59C8.51999 154.19 14.41 146.97 21.32 138.27Z" fill="#2AA62F"/>
<path d="M121.6 15.08C112.97 27.08 104.97 38.29 96.85 49.4C95.9289 50.5987 94.6671 51.491 93.23 51.96C77.59 56.96 61.9 61.82 45.75 66.88C43.3 59.88 41.87 52.48 43.44 44.8C44.024 42.6218 45.2215 40.6572 46.89 39.14C58.89 27.86 72.09 18.14 87.54 12.62C98.52 8.67996 110.07 9.91996 121.6 15.08Z" fill="#2AA62F"/>
<path d="M199.57 272.64C191.63 284.46 181.12 291.16 167.44 291.64C153.76 292.12 139.94 292.19 126.23 291.55C116.45 291.1 110.32 283.84 109.14 273.09C120.5 270.09 132.28 268.09 143.22 263.93C155.39 259.27 166.45 260.17 177.99 265.18C184.8 268.16 192.05 270.09 199.57 272.64Z" fill="#2AA62F"/>
<path d="M58.73 171.49C57.6376 170.668 56.6324 169.737 55.73 168.71C46.96 157.33 38.17 145.97 29.67 134.4C29.0047 133.428 28.5445 132.331 28.3175 131.176C28.0905 130.021 28.1016 128.831 28.35 127.68C33.3233 112.007 38.5633 96.4267 44.07 80.94C45.2199 78.4229 47.3196 76.4635 49.91 75.49C64.01 70.65 78.24 66.15 92.52 61.85C93.5206 61.6512 94.5537 61.6877 95.5377 61.9567C96.5217 62.2257 97.4297 62.7198 98.19 63.4C107.33 73.97 116.1 84.87 125.19 95.51C127.56 98.29 127.12 100.51 125.95 103.69C120.07 119.85 114.69 136.18 108.95 152.37C108.23 154.37 106.6 156.99 104.82 157.57C90.45 162.27 75.95 166.57 61.49 170.95C60.89 171.12 60.31 171.18 58.73 171.49ZM34.03 127.96C34.8482 129.757 35.7905 131.494 36.85 133.16C43.91 142.46 51.17 151.6 58.09 161C60.09 163.67 61.86 164 64.8 163.09C75.91 159.55 87.14 156.4 98.18 152.67C99.3118 152.186 100.336 151.483 101.195 150.601C102.053 149.718 102.728 148.675 103.18 147.53C108.473 133.003 113.523 118.393 118.33 103.7C118.97 101.76 118.82 98.65 117.65 97.17C110.55 88.17 103.13 79.39 95.6 70.72C94.976 70.1112 94.2205 69.6538 93.3917 69.3834C92.5629 69.1129 91.683 69.0365 90.82 69.16C78.39 72.95 66.05 76.98 53.73 81.16C52.26 81.66 50.41 82.87 49.91 84.16C44.49 98.63 39.33 113.21 34.03 127.96Z" fill="white"/>
<path d="M159.14 217C158.14 226.17 157.01 236.45 155.97 246.74C155.63 250.07 154.55 252.13 150.78 253.04C136.66 256.49 122.68 260.52 108.55 263.91C105.808 264.443 102.965 263.902 100.61 262.4C87.39 252.913 74.3467 243.17 61.48 233.17C60.6121 232.394 59.9137 231.447 59.4285 230.389C58.9432 229.331 58.6816 228.184 58.66 227.02C59.25 213.24 60.1 199.46 61.32 185.72C61.5773 184.53 62.1104 183.417 62.8763 182.47C63.6423 181.524 64.6197 180.77 65.73 180.27C79.39 175.9 93.15 171.8 107.03 168.16C109.37 167.55 112.88 168.95 115.03 170.53C129.03 180.86 142.84 191.44 156.6 202.09C157.926 203.266 158.791 204.875 159.04 206.63C159.41 209.68 159.14 212.78 159.14 217ZM65.25 217.08L64.25 217.41C65.43 221.55 65.31 227.23 68.04 229.55C78.82 238.71 90.45 246.88 101.9 255.23C103.58 256.46 106.25 257.58 108.08 257.15C120.92 254.09 133.67 250.68 146.4 247.15C147.124 246.868 147.771 246.421 148.292 245.844C148.813 245.268 149.192 244.578 149.4 243.83C150.653 232.983 151.693 222.113 152.52 211.22C152.534 210.336 152.364 209.458 152.019 208.644C151.675 207.829 151.164 207.096 150.52 206.49C137.607 196.303 124.583 186.253 111.45 176.34C110.637 175.797 109.723 175.423 108.763 175.239C107.803 175.056 106.816 175.066 105.86 175.27C94.4 178.36 82.99 181.62 71.69 185.27C70.6778 185.723 69.7828 186.402 69.0738 187.255C68.3648 188.108 67.8607 189.112 67.6 190.19C66.52 199.1 65.99 208.1 65.25 217.08Z" fill="white"/>
<path d="M103.99 54.48C112.37 42.67 120.37 31.22 128.65 19.99C129.65 18.64 132.22 17.77 134.04 17.8C150.49 18.09 166.95 18.51 183.38 19.21C185.779 19.4165 188.023 20.4817 189.7 22.21C199.193 32.7367 208.49 43.4367 217.59 54.31C218.111 55.1726 218.418 56.1472 218.486 57.1527C218.554 58.1582 218.381 59.1653 217.98 60.09C211.473 70.6967 204.73 81.1533 197.75 91.46C196.88 92.75 194.4 93.59 192.69 93.56C175.69 93.33 158.69 92.68 141.69 92.61C137.69 92.61 134.91 92.05 132.33 88.83C123.12 77.39 113.64 66.13 103.99 54.48ZM212.19 57.59C203.19 47.41 194.48 37.45 185.53 27.76C183.868 26.2392 181.721 25.3569 179.47 25.27C165.47 24.69 151.497 24.3033 137.55 24.11C135.73 24.11 133.19 25.02 132.17 26.39C125.47 35.39 119.09 44.74 112.41 54.24C120.36 63.79 128.19 72.97 135.72 82.38C137.9 85.1 140.16 85.78 143.53 85.78C159.01 85.78 174.53 86.18 189.98 86.3C191.42 86.3 193.52 85.79 194.22 84.77C200.26 75.95 206.05 66.95 212.19 57.59Z" fill="white"/>
<path d="M165.48 246.96C166.85 233.11 167.89 220.52 169.48 207.96C169.78 205.62 171.91 202.96 173.94 201.49C187.75 191.28 201.86 181.49 215.64 171.21C218.27 169.21 220.24 168.49 223.31 169.72C233.79 173.887 244.317 177.927 254.89 181.84C258.25 183.08 259.04 185.1 258.58 188.4C256.7 201.84 255.03 215.32 253.1 228.76C252.88 230.594 252.007 232.288 250.64 233.53C237.06 243.47 223.34 253.21 209.64 263.01C206.64 265.18 203.64 265.29 200.02 263.95C190.53 260.41 180.91 257.2 171.24 254.19C166.73 252.83 164.16 250.78 165.48 246.96ZM172.48 242.64C171.2 246.26 173.34 248.23 177.57 249.46C185.1 251.66 192.41 254.61 199.99 256.57C202.72 257.28 206.64 257.06 208.84 255.57C220.84 247.36 232.55 238.71 244.16 229.96C245.802 228.458 246.864 226.426 247.16 224.22C248.71 213.61 249.76 202.93 251.38 192.34C251.88 189.03 251.13 187.41 248.06 186.28C240.16 183.37 232.41 180.06 224.44 177.38C223.336 177.127 222.193 177.099 221.078 177.296C219.963 177.494 218.9 177.913 217.95 178.53C205.137 187.463 192.397 196.587 179.73 205.9C177.707 207.383 176.287 209.545 175.73 211.99C174.39 221.85 173.6 231.79 172.52 242.64H172.48Z" fill="white"/>
<path d="M283.44 135.83C283.15 137.512 282.642 139.149 281.93 140.7C276.5 150.37 270.77 159.87 265.42 169.58C263.27 173.47 260.84 173.64 257.08 172.11C246.63 167.85 235.99 164.11 225.59 159.7C223.575 158.597 222.064 156.76 221.37 154.57C216.11 137.617 211.03 120.617 206.13 103.57C205.649 101.696 205.884 99.7097 206.79 98C213.29 87.4 219.977 76.9133 226.85 66.54C227.67 65.31 230.52 64.15 231.73 64.66C243.18 69.43 254.49 74.52 265.78 79.66C267.127 80.3568 268.189 81.503 268.78 82.9C275.51 99.64 281.2 116.66 283.44 135.83ZM260.04 166.01C264.85 157.63 269.77 150.06 273.6 142.01C275.43 138.17 276.6 133.01 275.6 129.01C272.31 115.48 268.02 102.18 263.88 88.87C263.234 86.9138 261.893 85.2627 260.11 84.23C252.11 80.23 243.83 76.65 235.72 72.81C232.97 71.51 231.28 71.96 229.61 74.67C224.61 82.82 219.24 90.75 214.24 98.91C213.402 100.487 213.184 102.321 213.63 104.05C218.143 119.65 222.81 135.207 227.63 150.72C228.06 152.15 229.14 153.96 230.38 154.47C239.89 158.34 249.54 161.96 260.04 166.01Z" fill="white"/>
<path d="M196.55 16.11C201.63 12.65 206.46 12.23 211.55 14.83C230.7 24.66 247.55 37.4 260.85 54.43C263.91 58.36 265.09 63.75 267.13 68.43L265.4 69.63C259.4 67 253.63 63.72 247.4 61.9C234.57 58.12 225 50.73 217.24 39.9C211.28 31.53 203.73 24.27 196.55 16.11Z" fill="#2AA62F"/>
<path d="M262.4 228.49C264.05 213.12 265.66 197.94 267.32 182.77C267.395 181.812 267.675 180.881 268.14 180.04C275.14 168.44 282.24 156.87 290.82 144.95C291.59 149.01 293.25 153.12 292.99 157.1C291.37 181.44 283.8 203.91 270.99 224.71C268.73 228.45 266.08 229.55 262.4 228.49Z" fill="#2AA62F"/>
<path d="M0 148.27C0.18 112.78 11.24 81.32 33.42 53.63C34.82 59.82 36.26 65.63 37.42 71.54C37.6195 73.2028 37.4066 74.889 36.8 76.45C31.0067 93.8633 25.16 111.257 19.26 128.63C18.9466 129.714 18.3851 130.71 17.62 131.54C11.87 137.02 6.07 142.47 0 148.27ZM8 129.34L9.35 130.12C10.64 128.37 12.46 126.81 13.15 124.86C18.89 108.45 24.45 91.97 29.98 75.49C30.2511 74.1379 30.3552 72.7575 30.29 71.38C17.9021 88.3827 10.2139 108.35 8 129.27V129.34Z" fill="white"/>
<path d="M104.4 286.88C72.22 277.2 47.24 258.18 27.46 231.52C35.71 233.25 43.52 234.78 51.26 236.57C52.83 236.94 54.26 238.22 55.59 239.23C69.34 249.23 83.1 259.23 96.73 269.43C98.4141 270.815 99.704 272.619 100.47 274.66C102.01 278.58 103.08 282.7 104.4 286.88ZM89.7 272.88L47.49 242.02L46.36 243.61C58.8 256.27 72.57 266.97 89.73 272.89L89.7 272.88Z" fill="white"/>
<path d="M113.49 4.61999C140.3 -2.49002 166.6 -1.23002 192.49 7.24997L192.78 9.05997C189.54 9.73997 186.29 11.06 183.05 11C165.43 10.82 147.78 10.7 130.19 9.67999C124.57 9.34999 119.06 6.37999 113.49 4.61999Z" fill="white"/>
<path d="M202.15 279.73C207.37 275.47 212.45 271.04 217.82 266.98C229.58 258.09 241.45 249.35 253.35 240.65C255.35 239.19 257.73 238.26 261.12 236.46C254.07 251.46 221.41 276.23 203.26 281.28L202.15 279.73Z" fill="white"/>
<path d="M274.38 75.37C284.992 93.0278 291.095 113.026 292.15 133.6C286.23 114.187 280.307 94.7767 274.38 75.37Z" fill="white"/>
<path d="M337.86 143.62V55.62H397.2V66H349.5V93.27H390.78V103.67H349.5V143.67L337.86 143.62Z" fill="#2AA62F" stroke="#2AA62F" stroke-width="5" stroke-miterlimit="10"/>
<path d="M406.92 111.76C406.92 99.9667 410.2 91.23 416.76 85.55C422.24 80.83 428.907 78.47 436.76 78.47C445.52 78.47 452.677 81.34 458.23 87.08C463.783 92.82 466.563 100.747 466.57 110.86C466.57 119.06 465.343 125.51 462.89 130.21C460.48 134.848 456.741 138.661 452.15 141.16C447.441 143.762 442.14 145.106 436.76 145.06C427.84 145.06 420.63 142.2 415.13 136.48C409.63 130.76 406.893 122.52 406.92 111.76ZM418.02 111.76C418.02 119.92 419.8 126.03 423.36 130.09C425.029 132.007 427.09 133.544 429.403 134.597C431.716 135.65 434.228 136.195 436.77 136.195C439.312 136.195 441.824 135.65 444.137 134.597C446.45 133.544 448.511 132.007 450.18 130.09C453.74 126.01 455.517 119.79 455.51 111.43C455.51 103.557 453.723 97.59 450.15 93.53C448.479 91.6209 446.42 90.091 444.11 89.0428C441.799 87.9946 439.292 87.4524 436.755 87.4524C434.218 87.4524 431.711 87.9946 429.4 89.0428C427.09 90.091 425.031 91.6209 423.36 93.53C419.8 97.53 418.02 103.607 418.02 111.76Z" fill="#2AA62F" stroke="#2AA62F" stroke-width="5" stroke-miterlimit="10"/>
<path d="M475.25 111.76C475.25 99.9667 478.53 91.23 485.09 85.55C490.57 80.83 497.237 78.47 505.09 78.47C513.85 78.47 521.01 81.34 526.57 87.08C532.13 92.82 534.91 100.747 534.91 110.86C534.91 119.06 533.68 125.51 531.22 130.21C528.816 134.853 525.075 138.667 520.48 141.16C515.771 143.762 510.47 145.106 505.09 145.06C496.17 145.06 488.96 142.2 483.46 136.48C477.96 130.76 475.223 122.52 475.25 111.76ZM486.35 111.76C486.35 119.92 488.13 126.03 491.69 130.09C493.359 132.007 495.42 133.544 497.733 134.597C500.046 135.65 502.558 136.195 505.1 136.195C507.642 136.195 510.154 135.65 512.467 134.597C514.78 133.544 516.841 132.007 518.51 130.09C522.07 126.01 523.85 119.79 523.85 111.43C523.85 103.557 522.06 97.59 518.48 93.53C516.809 91.6209 514.75 90.091 512.44 89.0428C510.129 87.9946 507.622 87.4524 505.085 87.4524C502.548 87.4524 500.041 87.9946 497.73 89.0428C495.42 90.091 493.361 91.6209 491.69 93.53C488.13 97.53 486.35 103.607 486.35 111.76Z" fill="#2AA62F" stroke="#2AA62F" stroke-width="5" stroke-miterlimit="10"/>
<path d="M571.19 133.96L572.75 143.5C570.071 144.112 567.337 144.447 564.59 144.5C560.67 144.5 557.63 143.88 555.47 142.64C553.454 141.556 551.851 139.837 550.91 137.75C550.03 135.75 549.59 131.5 549.59 125V88.27H541.67V79.87H549.59V64.13L560.33 57.65V79.91H571.19V88.27H560.33V125.52C560.33 128.6 560.52 130.58 560.9 131.46C561.28 132.34 561.932 133.076 562.76 133.56C563.899 134.144 565.172 134.413 566.45 134.34C568.037 134.321 569.62 134.194 571.19 133.96Z" fill="#2AA62F" stroke="#2AA62F" stroke-width="5" stroke-miterlimit="10"/>
<path d="M591.73 143.62H581.73V55.62H592.53V87C594.552 84.2905 597.188 82.0997 600.221 80.608C603.255 79.1164 606.6 78.3665 609.98 78.42C613.817 78.4023 617.613 79.2106 621.11 80.79C624.488 82.2757 627.453 84.5616 629.75 87.45C632.134 90.5489 633.933 94.0562 635.06 97.8C636.367 102.008 637.015 106.394 636.98 110.8C636.98 121.707 634.28 130.143 628.88 136.11C623.48 142.077 617 145.057 609.44 145.05C605.925 145.153 602.444 144.34 599.339 142.69C596.234 141.04 593.612 138.61 591.73 135.64V143.62ZM591.59 111.27C591.59 118.91 592.63 124.43 594.71 127.83C598.103 133.39 602.7 136.17 608.5 136.17C613.22 136.17 617.3 134.12 620.74 130.02C624.18 125.92 625.9 119.813 625.9 111.7C625.9 103.38 624.25 97.24 620.95 93.28C617.65 89.32 613.65 87.34 608.95 87.34C604.23 87.34 600.15 89.39 596.71 93.49C593.27 97.59 591.563 103.517 591.59 111.27Z" fill="#2AA62F" stroke="#2AA62F" stroke-width="5" stroke-miterlimit="10"/>
<path d="M691.66 135.76C688.247 138.799 684.341 141.234 680.11 142.96C676.301 144.38 672.265 145.091 668.2 145.06C661.2 145.06 655.82 143.35 652.06 139.93C650.222 138.287 648.765 136.263 647.791 133.998C646.817 131.734 646.349 129.284 646.42 126.82C646.4 123.918 647.092 121.056 648.437 118.484C649.781 115.912 651.736 113.71 654.13 112.07C656.507 110.47 659.133 109.274 661.9 108.53C665.063 107.788 668.269 107.247 671.5 106.91C680.22 105.87 686.64 104.63 690.76 103.19C690.8 101.71 690.82 100.77 690.82 100.37C690.82 95.97 689.8 92.87 687.76 91.07C685 88.63 680.9 87.41 675.46 87.41C670.38 87.41 666.63 88.3 664.21 90.08C661.79 91.86 660 95.01 658.84 99.53L648.28 98.09C648.996 94.1237 650.618 90.3763 653.02 87.14C655.533 84.1452 658.839 81.92 662.56 80.72C667.214 79.1405 672.106 78.3793 677.02 78.47C681.518 78.3253 686.007 78.9752 690.28 80.39C693.156 81.3238 695.74 82.9881 697.78 85.22C699.475 87.3643 700.627 89.8855 701.14 92.57C701.595 95.8828 701.775 99.2275 701.68 102.57V116.96C701.68 127 701.91 133.333 702.37 135.96C702.839 138.647 703.762 141.234 705.1 143.61H693.82C692.637 141.143 691.905 138.485 691.66 135.76ZM690.76 111.65C686.84 113.25 680.96 114.607 673.12 115.72C669.906 116.064 666.743 116.789 663.7 117.88C661.962 118.6 660.479 119.822 659.44 121.39C658.211 123.317 657.713 125.621 658.038 127.883C658.363 130.146 659.488 132.217 661.21 133.72C663.39 135.64 666.58 136.6 670.78 136.6C674.654 136.671 678.481 135.73 681.88 133.87C684.985 132.191 687.483 129.578 689.02 126.4C690.18 123.96 690.76 120.36 690.76 115.6V111.65Z" fill="#2AA62F" stroke="#2AA62F" stroke-width="5" stroke-miterlimit="10"/>
<path d="M718.18 143.62V55.62H728.98V143.62H718.18Z" fill="#2AA62F" stroke="#2AA62F" stroke-width="5" stroke-miterlimit="10"/>
<path d="M745.47 143.62V55.62H756.27V143.62H745.47Z" fill="#2AA62F" stroke="#2AA62F" stroke-width="5" stroke-miterlimit="10"/>
<path d="M389.34 245V183.252H366V175H422.156V183.252H398.728V244.949L389.34 245Z" fill="white"/>
<path d="M415.136 219.482C415.136 210.101 417.834 203.152 423.231 198.636C427.823 194.855 433.7 192.851 439.731 193.009C446.936 193.009 452.826 195.293 457.401 199.86C461.976 204.428 464.266 210.735 464.272 218.78C464.272 225.3 463.259 230.439 461.231 234.197C459.246 237.891 456.157 240.923 452.365 242.898C448.492 244.97 444.131 246.038 439.704 245.999C432.351 245.999 426.416 243.715 421.901 239.147C417.385 234.58 415.13 228.024 415.136 219.482ZM424.268 219.482C424.268 225.974 425.746 230.828 428.701 234.043C430.076 235.566 431.772 236.788 433.676 237.625C435.58 238.463 437.647 238.896 439.74 238.896C441.832 238.896 443.9 238.463 445.803 237.625C447.708 236.788 449.404 235.566 450.778 234.043C453.733 230.794 455.196 225.849 455.167 219.208C455.167 212.928 453.689 208.179 450.734 204.965C449.358 203.449 447.662 202.235 445.761 201.402C443.859 200.57 441.796 200.14 439.709 200.14C437.622 200.14 435.558 200.57 433.657 201.402C431.756 202.235 430.06 203.449 428.684 204.965C425.711 208.157 424.224 212.996 424.224 219.482H424.268Z" fill="white"/>
<path d="M507.204 244.862V238.47C503.911 243.495 499.065 246.006 492.666 246C488.6 246.022 484.62 244.86 481.239 242.663C477.694 240.364 474.894 237.133 473.161 233.345C471.175 229.027 470.197 224.334 470.296 219.604C470.227 214.899 471.108 210.228 472.889 205.854C474.411 201.988 477.133 198.68 480.676 196.391C484.125 194.202 488.163 193.058 492.279 193.105C495.191 193.053 498.07 193.718 500.647 195.039C503.004 196.25 505.049 197.968 506.624 200.061V175H515.414V244.862H507.204ZM479.349 219.604C479.349 226.078 480.753 230.926 483.56 234.149C486.372 237.358 489.712 238.966 493.501 238.966C495.389 238.973 497.253 238.562 498.954 237.764C500.655 236.967 502.147 235.804 503.319 234.363C506.009 231.3 507.354 226.622 507.354 220.331C507.354 213.406 505.982 208.324 503.24 205.084C502.053 203.564 500.52 202.334 498.762 201.49C497.003 200.646 495.066 200.214 493.105 200.224C491.209 200.207 489.336 200.62 487.633 201.431C485.93 202.241 484.446 203.428 483.296 204.896C480.67 207.999 479.355 212.902 479.349 219.604Z" fill="white"/>
<path d="M561.761 238.608C559.021 241.026 555.882 242.961 552.481 244.329C549.436 245.452 546.209 246.018 542.959 246C537.333 246 533.004 244.64 529.975 241.923C528.499 240.616 527.329 239.006 526.547 237.206C525.764 235.405 525.39 233.458 525.448 231.499C525.432 229.191 525.989 226.914 527.07 224.868C528.15 222.823 529.721 221.07 531.645 219.765C533.556 218.495 535.664 217.543 537.887 216.947C540.427 216.358 543.003 215.928 545.599 215.662C552.6 214.829 557.759 213.844 561.077 212.707C561.077 211.525 561.077 210.78 561.077 210.463C561.077 206.96 560.263 204.468 558.618 203.071C556.402 201.13 553.11 200.159 548.742 200.159C544.656 200.159 541.641 200.868 539.696 202.283C537.757 203.697 536.311 206.198 535.368 209.795L526.876 208.647C527.455 205.495 528.761 202.516 530.693 199.945C532.705 197.55 535.362 195.769 538.354 194.806C542.093 193.551 546.023 192.946 549.971 193.016C553.586 192.9 557.194 193.415 560.627 194.541C562.951 195.278 565.04 196.604 566.686 198.386C568.052 200.088 568.978 202.093 569.387 204.228C569.752 206.85 569.897 209.496 569.82 212.142V223.593C569.82 231.587 570.004 236.635 570.374 238.736C570.755 240.874 571.499 242.933 572.572 244.826H563.5C562.553 242.872 561.964 240.766 561.761 238.608ZM561.042 219.431C557.891 220.698 553.165 221.78 546.863 222.677C544.282 222.949 541.742 223.524 539.298 224.39C537.887 224.956 536.681 225.929 535.835 227.182C535.04 228.396 534.621 229.813 534.632 231.259C534.608 232.345 534.828 233.423 535.277 234.414C535.726 235.405 536.393 236.285 537.229 236.989C538.96 238.514 541.522 239.276 544.915 239.276C548.055 239.347 551.157 238.597 553.909 237.1C556.402 235.767 558.407 233.69 559.64 231.165C560.575 229.229 561.042 226.36 561.042 222.6V219.431Z" fill="white"/>
<path d="M582.242 263.954L581.247 255.911C582.905 256.379 584.62 256.634 586.347 256.671C587.989 256.742 589.624 256.416 591.101 255.723C592.291 255.086 593.294 254.17 594.016 253.059C595.102 251.01 596.014 248.88 596.743 246.69C596.903 246.211 597.17 245.511 597.534 244.598L577.586 194H587.191L598.13 223.244C599.545 226.949 600.813 230.849 601.933 234.941C602.949 231.047 604.174 227.204 605.602 223.431L616.834 194H625.719L605.745 245.358C604.326 249.272 602.658 253.098 600.751 256.816C599.488 259.28 597.619 261.411 595.304 263.023C593.126 264.375 590.574 265.062 587.982 264.996C586.023 264.951 584.083 264.599 582.242 263.954Z" fill="white"/>
<path d="M615.692 245V239H622.711V245H615.692Z" fill="white"/>
<path d="M629.731 244.991V222.519H633.339V225.708C634.135 224.52 635.24 223.553 636.546 222.904C637.852 222.255 639.313 221.945 640.782 222.008C642.116 221.994 643.439 222.241 644.67 222.736C645.719 223.129 646.637 223.792 647.322 224.651C647.934 225.497 648.355 226.456 648.558 227.468C648.738 228.693 648.81 229.931 648.775 231.168V244.991H644.814V231.316C644.87 230.143 644.711 228.97 644.345 227.849C644.035 227.071 643.456 226.418 642.703 226.003C641.866 225.536 640.911 225.299 639.943 225.318C638.334 225.288 636.774 225.838 635.567 226.861C634.365 227.89 633.763 229.845 633.763 232.728V245L629.731 244.991Z" fill="white"/>
<path d="M669.74 237.423L673.738 237.899C673.218 239.98 671.975 241.827 670.215 243.134C668.015 244.52 665.4 245.164 662.78 244.964C660.16 244.765 657.683 243.733 655.736 242.031C653.775 240.045 652.794 237.265 652.794 233.69C652.794 229.99 653.783 227.12 655.762 225.078C656.743 224.065 657.937 223.267 659.265 222.737C660.593 222.207 662.024 221.958 663.46 222.006C664.859 221.961 666.25 222.205 667.542 222.724C668.833 223.242 669.994 224.022 670.946 225.01C672.884 227.012 673.853 229.84 673.853 233.495C673.853 233.715 673.853 234.046 673.853 234.488H656.819C656.811 236.526 657.565 238.499 658.942 240.045C659.561 240.663 660.309 241.149 661.136 241.471C661.963 241.792 662.851 241.943 663.742 241.912C665.045 241.949 666.323 241.569 667.379 240.834C668.493 239.942 669.313 238.757 669.74 237.423ZM657.031 231.39H669.784C669.738 229.893 669.229 228.442 668.322 227.224C667.748 226.534 667.017 225.98 666.183 225.608C665.35 225.235 664.439 225.054 663.522 225.078C662.695 225.056 661.871 225.195 661.102 225.487C660.331 225.778 659.63 226.216 659.039 226.775C657.788 228.013 657.07 229.663 657.031 231.39Z" fill="white"/>
<path d="M682.009 245L674.856 222.009H678.951L682.668 235.309L684.057 240.247L685.275 235.504L688.992 222.044H693.07L696.57 235.344L697.734 239.733L699.078 235.3L703.092 222H706.944L699.628 244.991H695.514L691.789 231.221L690.886 227.302L686.15 244.991L682.009 245Z" fill="white"/>
<path d="M707.947 237.982L711.792 237.395C711.917 238.702 712.549 239.917 713.564 240.797C714.76 241.644 716.227 242.062 717.71 241.979C719.122 242.084 720.528 241.714 721.687 240.933C722.084 240.644 722.408 240.271 722.632 239.844C722.856 239.417 722.975 238.945 722.981 238.467C722.989 238.068 722.888 237.674 722.687 237.325C722.486 236.975 722.194 236.682 721.838 236.477C720.572 235.897 719.236 235.471 717.86 235.209C715.832 234.776 713.846 234.175 711.925 233.415C710.922 232.972 710.077 232.257 709.492 231.357C708.908 230.458 708.612 229.414 708.638 228.355C708.63 227.403 708.87 226.464 709.338 225.625C709.801 224.798 710.455 224.085 711.252 223.541C712.007 223.045 712.846 222.676 713.732 222.453C714.825 222.147 715.959 221.995 717.098 222.002C718.715 221.975 720.324 222.229 721.847 222.75C723.033 223.132 724.079 223.836 724.859 224.774C725.575 225.792 726.033 226.958 726.196 228.176L722.396 228.669C722.274 227.63 721.733 226.678 720.89 226.016C719.858 225.318 718.606 224.981 717.346 225.064C716.009 224.95 714.669 225.248 713.519 225.914C713.177 226.133 712.893 226.429 712.694 226.775C712.495 227.121 712.386 227.509 712.377 227.904C712.374 228.38 712.543 228.843 712.855 229.214C713.247 229.67 713.761 230.014 714.343 230.209C714.733 230.345 715.876 230.668 717.781 231.161C719.738 231.611 721.664 232.179 723.548 232.862C724.579 233.269 725.467 233.951 726.108 234.827C726.74 235.779 727.049 236.897 726.994 238.024C726.988 239.28 726.593 240.506 725.86 241.545C725.05 242.685 723.911 243.572 722.582 244.097C721.05 244.719 719.399 245.027 717.736 244.998C714.751 244.998 712.483 244.403 710.915 243.212C709.284 241.882 708.227 240.018 707.947 237.982Z" fill="white"/>
</g>
<path d="M758 157H335V164H758V157Z" fill="#2AA62F"/>
</g>
<defs>
<clipPath id="clip0_2_42">
<rect width="758" height="293" fill="white"/>
</clipPath>
</defs>
</svg>
