<svg width="294" height="293" viewBox="0 0 294 293" fill="none" xmlns="http://www.w3.org/2000/svg">
<path d="M168.73 100.47C175.39 101.28 183.04 101.85 190.52 103.3C193.403 103.989 195.91 105.762 197.52 108.25C206.37 123.61 210.36 140.5 211.94 157.99C212.1 159.72 210.85 161.99 209.56 163.37C197.821 175.79 183.825 185.863 168.32 193.05C167.323 193.463 166.254 193.676 165.175 193.676C164.096 193.676 163.027 193.463 162.03 193.05C146.15 185.05 132.6 173.8 120.11 161.27C118.83 159.99 118.35 157.06 118.71 155.11C121.81 138.27 126.92 122.05 135.32 107.05C135.943 106.071 136.758 105.227 137.715 104.571C138.672 103.915 139.752 103.458 140.89 103.23C149.73 102.06 158.73 101.42 168.73 100.47Z" fill="#FBC02D"/>
<path d="M21.32 138.27C32.01 152.87 41.39 165.65 50.73 178.45C51.1912 179.056 51.4532 179.789 51.48 180.55C50.96 195.99 50.37 211.43 49.78 227.19C38.3599 226.61 27.3691 222.652 18.2 215.82C17.0724 214.794 16.1818 213.535 15.59 212.13C8.00999 197.95 4.01999 182.62 1.49999 166.88C1.30686 165.006 1.80082 163.127 2.88999 161.59C8.51999 154.19 14.41 146.97 21.32 138.27Z" fill="#FBC02D"/>
<path d="M121.6 15.08C112.97 27.08 104.97 38.29 96.85 49.4C95.9289 50.5987 94.6671 51.491 93.23 51.96C77.59 56.96 61.9 61.82 45.75 66.88C43.3 59.88 41.87 52.48 43.44 44.8C44.024 42.6218 45.2215 40.6572 46.89 39.14C58.89 27.86 72.09 18.14 87.54 12.62C98.52 8.67996 110.07 9.91996 121.6 15.08Z" fill="#FBC02D"/>
<path d="M199.57 272.64C191.63 284.46 181.12 291.16 167.44 291.64C153.76 292.12 139.94 292.19 126.23 291.55C116.45 291.1 110.32 283.84 109.14 273.09C120.5 270.09 132.28 268.09 143.22 263.93C155.39 259.27 166.45 260.17 177.99 265.18C184.8 268.16 192.05 270.09 199.57 272.64Z" fill="#FBC02D"/>
<path d="M58.73 171.49C57.6376 170.668 56.6324 169.737 55.73 168.71C46.96 157.33 38.17 145.97 29.67 134.4C29.0047 133.428 28.5445 132.331 28.3175 131.176C28.0905 130.021 28.1016 128.831 28.35 127.68C33.3233 112.007 38.5633 96.4267 44.07 80.94C45.2199 78.4229 47.3196 76.4635 49.91 75.49C64.01 70.65 78.24 66.15 92.52 61.85C93.5206 61.6512 94.5537 61.6877 95.5377 61.9567C96.5217 62.2257 97.4297 62.7198 98.19 63.4C107.33 73.97 116.1 84.87 125.19 95.51C127.56 98.29 127.12 100.51 125.95 103.69C120.07 119.85 114.69 136.18 108.95 152.37C108.23 154.37 106.6 156.99 104.82 157.57C90.45 162.27 75.95 166.57 61.49 170.95C60.89 171.12 60.31 171.18 58.73 171.49ZM34.03 127.96C34.8482 129.757 35.7905 131.494 36.85 133.16C43.91 142.46 51.17 151.6 58.09 161C60.09 163.67 61.86 164 64.8 163.09C75.91 159.55 87.14 156.4 98.18 152.67C99.3118 152.186 100.336 151.483 101.195 150.601C102.053 149.718 102.728 148.675 103.18 147.53C108.473 133.003 113.523 118.393 118.33 103.7C118.97 101.76 118.82 98.65 117.65 97.17C110.55 88.17 103.13 79.39 95.6 70.72C94.976 70.1112 94.2205 69.6538 93.3917 69.3834C92.5629 69.1129 91.683 69.0365 90.82 69.16C78.39 72.95 66.05 76.98 53.73 81.16C52.26 81.66 50.41 82.87 49.91 84.16C44.49 98.63 39.33 113.21 34.03 127.96Z" fill="black"/>
<path d="M159.14 217C158.14 226.17 157.01 236.45 155.97 246.74C155.63 250.07 154.55 252.13 150.78 253.04C136.66 256.49 122.68 260.52 108.55 263.91C105.808 264.443 102.965 263.902 100.61 262.4C87.39 252.913 74.3467 243.17 61.48 233.17C60.6121 232.394 59.9137 231.447 59.4285 230.389C58.9432 229.331 58.6816 228.184 58.66 227.02C59.25 213.24 60.1 199.46 61.32 185.72C61.5773 184.53 62.1104 183.417 62.8763 182.47C63.6423 181.524 64.6197 180.77 65.73 180.27C79.39 175.9 93.15 171.8 107.03 168.16C109.37 167.55 112.88 168.95 115.03 170.53C129.03 180.86 142.84 191.44 156.6 202.09C157.926 203.266 158.791 204.875 159.04 206.63C159.41 209.68 159.14 212.78 159.14 217ZM65.25 217.08L64.25 217.41C65.43 221.55 65.31 227.23 68.04 229.55C78.82 238.71 90.45 246.88 101.9 255.23C103.58 256.46 106.25 257.58 108.08 257.15C120.92 254.09 133.67 250.68 146.4 247.15C147.124 246.868 147.771 246.421 148.292 245.844C148.813 245.268 149.192 244.578 149.4 243.83C150.653 232.983 151.693 222.113 152.52 211.22C152.534 210.336 152.364 209.458 152.019 208.644C151.675 207.829 151.164 207.096 150.52 206.49C137.607 196.303 124.583 186.253 111.45 176.34C110.637 175.797 109.723 175.423 108.763 175.239C107.803 175.056 106.816 175.066 105.86 175.27C94.4 178.36 82.99 181.62 71.69 185.27C70.6778 185.723 69.7828 186.402 69.0738 187.255C68.3648 188.108 67.8607 189.112 67.6 190.19C66.52 199.1 65.99 208.1 65.25 217.08Z" fill="black"/>
<path d="M103.99 54.48C112.37 42.67 120.37 31.22 128.65 19.99C129.65 18.64 132.22 17.77 134.04 17.8C150.49 18.09 166.95 18.51 183.38 19.21C185.779 19.4165 188.023 20.4817 189.7 22.21C199.193 32.7367 208.49 43.4367 217.59 54.31C218.111 55.1726 218.418 56.1472 218.486 57.1527C218.554 58.1582 218.381 59.1653 217.98 60.09C211.473 70.6967 204.73 81.1533 197.75 91.46C196.88 92.75 194.4 93.59 192.69 93.56C175.69 93.33 158.69 92.68 141.69 92.61C137.69 92.61 134.91 92.05 132.33 88.83C123.12 77.39 113.64 66.13 103.99 54.48ZM212.19 57.59C203.19 47.41 194.48 37.45 185.53 27.76C183.868 26.2392 181.721 25.3569 179.47 25.27C165.47 24.69 151.497 24.3033 137.55 24.11C135.73 24.11 133.19 25.02 132.17 26.39C125.47 35.39 119.09 44.74 112.41 54.24C120.36 63.79 128.19 72.97 135.72 82.38C137.9 85.1 140.16 85.78 143.53 85.78C159.01 85.78 174.53 86.18 189.98 86.3C191.42 86.3 193.52 85.79 194.22 84.77C200.26 75.95 206.05 66.95 212.19 57.59Z" fill="black"/>
<path d="M165.48 246.96C166.85 233.11 167.89 220.52 169.48 207.96C169.78 205.62 171.91 202.96 173.94 201.49C187.75 191.28 201.86 181.49 215.64 171.21C218.27 169.21 220.24 168.49 223.31 169.72C233.79 173.887 244.317 177.927 254.89 181.84C258.25 183.08 259.04 185.1 258.58 188.4C256.7 201.84 255.03 215.32 253.1 228.76C252.88 230.594 252.007 232.288 250.64 233.53C237.06 243.47 223.34 253.21 209.64 263.01C206.64 265.18 203.64 265.29 200.02 263.95C190.53 260.41 180.91 257.2 171.24 254.19C166.73 252.83 164.16 250.78 165.48 246.96ZM172.48 242.64C171.2 246.26 173.34 248.23 177.57 249.46C185.1 251.66 192.41 254.61 199.99 256.57C202.72 257.28 206.64 257.06 208.84 255.57C220.84 247.36 232.55 238.71 244.16 229.96C245.802 228.458 246.864 226.426 247.16 224.22C248.71 213.61 249.76 202.93 251.38 192.34C251.88 189.03 251.13 187.41 248.06 186.28C240.16 183.37 232.41 180.06 224.44 177.38C223.336 177.127 222.193 177.099 221.078 177.296C219.963 177.494 218.9 177.913 217.95 178.53C205.137 187.463 192.397 196.587 179.73 205.9C177.707 207.383 176.287 209.545 175.73 211.99C174.39 221.85 173.6 231.79 172.52 242.64H172.48Z" fill="black"/>
<path d="M283.44 135.83C283.15 137.512 282.642 139.149 281.93 140.7C276.5 150.37 270.77 159.87 265.42 169.58C263.27 173.47 260.84 173.64 257.08 172.11C246.63 167.85 235.99 164.11 225.59 159.7C223.575 158.597 222.064 156.76 221.37 154.57C216.11 137.617 211.03 120.617 206.13 103.57C205.649 101.696 205.884 99.7097 206.79 98C213.29 87.4 219.977 76.9133 226.85 66.54C227.67 65.31 230.52 64.15 231.73 64.66C243.18 69.43 254.49 74.52 265.78 79.66C267.127 80.3568 268.189 81.503 268.78 82.9C275.51 99.64 281.2 116.66 283.44 135.83ZM260.04 166.01C264.85 157.63 269.77 150.06 273.6 142.01C275.43 138.17 276.6 133.01 275.6 129.01C272.31 115.48 268.02 102.18 263.88 88.87C263.234 86.9138 261.893 85.2627 260.11 84.23C252.11 80.23 243.83 76.65 235.72 72.81C232.97 71.51 231.28 71.96 229.61 74.67C224.61 82.82 219.24 90.75 214.24 98.91C213.402 100.487 213.184 102.321 213.63 104.05C218.143 119.65 222.81 135.207 227.63 150.72C228.06 152.15 229.14 153.96 230.38 154.47C239.89 158.34 249.54 161.96 260.04 166.01Z" fill="black"/>
<path d="M196.55 16.11C201.63 12.65 206.46 12.23 211.55 14.83C230.7 24.66 247.55 37.4 260.85 54.43C263.91 58.36 265.09 63.75 267.13 68.43L265.4 69.63C259.4 67 253.63 63.72 247.4 61.9C234.57 58.12 225 50.73 217.24 39.9C211.28 31.53 203.73 24.27 196.55 16.11Z" fill="#FBC02D"/>
<path d="M262.4 228.49C264.05 213.12 265.66 197.94 267.32 182.77C267.395 181.812 267.675 180.881 268.14 180.04C275.14 168.44 282.24 156.87 290.82 144.95C291.59 149.01 293.25 153.12 292.99 157.1C291.37 181.44 283.8 203.91 270.99 224.71C268.73 228.45 266.08 229.55 262.4 228.49Z" fill="#FBC02D"/>
<path d="M0 148.27C0.18 112.78 11.24 81.32 33.42 53.63C34.82 59.82 36.26 65.63 37.42 71.54C37.6195 73.2028 37.4066 74.889 36.8 76.45C31.0067 93.8633 25.16 111.257 19.26 128.63C18.9466 129.714 18.3851 130.71 17.62 131.54C11.87 137.02 6.07 142.47 0 148.27ZM8 129.34L9.35 130.12C10.64 128.37 12.46 126.81 13.15 124.86C18.89 108.45 24.45 91.97 29.98 75.49C30.2511 74.1379 30.3552 72.7575 30.29 71.38C17.9021 88.3827 10.2139 108.35 8 129.27V129.34Z" fill="black"/>
<path d="M104.4 286.88C72.22 277.2 47.24 258.18 27.46 231.52C35.71 233.25 43.52 234.78 51.26 236.57C52.83 236.94 54.26 238.22 55.59 239.23C69.34 249.23 83.1 259.23 96.73 269.43C98.4141 270.815 99.704 272.619 100.47 274.66C102.01 278.58 103.08 282.7 104.4 286.88ZM89.7 272.88L47.49 242.02L46.36 243.61C58.8 256.27 72.57 266.97 89.73 272.89L89.7 272.88Z" fill="black"/>
<path d="M113.49 4.61999C140.3 -2.49002 166.6 -1.23002 192.49 7.24997L192.78 9.05997C189.54 9.73997 186.29 11.06 183.05 11C165.43 10.82 147.78 10.7 130.19 9.67999C124.57 9.34999 119.06 6.37999 113.49 4.61999Z" fill="black"/>
<path d="M202.15 279.73C207.37 275.47 212.45 271.04 217.82 266.98C229.58 258.09 241.45 249.35 253.35 240.65C255.35 239.19 257.73 238.26 261.12 236.46C254.07 251.46 221.41 276.23 203.26 281.28L202.15 279.73Z" fill="black"/>
<path d="M274.38 75.37C284.992 93.0278 291.095 113.026 292.15 133.6C286.23 114.187 280.307 94.7767 274.38 75.37Z" fill="black"/>
</svg>
