<svg width="758" height="293" viewBox="0 0 758 293" fill="none" xmlns="http://www.w3.org/2000/svg">
<mask id="mask0_6_3" style="mask-type:luminance" maskUnits="userSpaceOnUse" x="0" y="0" width="758" height="293">
<path d="M757.78 0H0V292.06H757.78V0Z" fill="white"/>
</mask>
<g mask="url(#mask0_6_3)">
<path d="M168.73 100.47C175.39 101.28 183.04 101.85 190.52 103.3C193.403 103.989 195.91 105.762 197.52 108.25C206.37 123.61 210.36 140.5 211.94 157.99C212.1 159.72 210.85 161.99 209.56 163.37C197.821 175.79 183.825 185.863 168.32 193.05C167.323 193.463 166.254 193.676 165.175 193.676C164.096 193.676 163.027 193.463 162.03 193.05C146.15 185.05 132.6 173.8 120.11 161.27C118.83 159.99 118.35 157.06 118.71 155.11C121.81 138.27 126.92 122.05 135.32 107.05C135.943 106.071 136.758 105.227 137.715 104.571C138.672 103.915 139.752 103.458 140.89 103.23C149.73 102.06 158.73 101.42 168.73 100.47Z" fill="#dba504"/>
<path d="M21.32 138.27C32.01 152.87 41.39 165.65 50.73 178.45C51.1912 179.056 51.4532 179.789 51.48 180.55C50.96 195.99 50.37 211.43 49.78 227.19C38.3599 226.61 27.3691 222.652 18.2 215.82C17.0724 214.794 16.1818 213.535 15.59 212.13C8.00999 197.95 4.01999 182.62 1.49999 166.88C1.30686 165.006 1.80082 163.127 2.88999 161.59C8.51999 154.19 14.41 146.97 21.32 138.27Z" fill="#dba504"/>
<path d="M121.6 15.08C112.97 27.08 104.97 38.29 96.85 49.4C95.9289 50.5987 94.6671 51.491 93.23 51.96C77.59 56.96 61.9 61.82 45.75 66.88C43.3 59.88 41.87 52.48 43.44 44.8C44.024 42.6218 45.2215 40.6572 46.89 39.14C58.89 27.86 72.09 18.14 87.54 12.62C98.52 8.67996 110.07 9.91996 121.6 15.08Z" fill="#dba504"/>
<path d="M199.57 272.64C191.63 284.46 181.12 291.16 167.44 291.64C153.76 292.12 139.94 292.19 126.23 291.55C116.45 291.1 110.32 283.84 109.14 273.09C120.5 270.09 132.28 268.09 143.22 263.93C155.39 259.27 166.45 260.17 177.99 265.18C184.8 268.16 192.05 270.09 199.57 272.64Z" fill="#dba504"/>
<path d="M58.73 171.49C57.6376 170.668 56.6324 169.737 55.73 168.71C46.96 157.33 38.17 145.97 29.67 134.4C29.0047 133.428 28.5445 132.331 28.3175 131.176C28.0905 130.021 28.1016 128.831 28.35 127.68C33.3233 112.007 38.5633 96.4267 44.07 80.94C45.2199 78.4229 47.3196 76.4635 49.91 75.49C64.01 70.65 78.24 66.15 92.52 61.85C93.5206 61.6512 94.5537 61.6877 95.5377 61.9567C96.5217 62.2257 97.4297 62.7198 98.19 63.4C107.33 73.97 116.1 84.87 125.19 95.51C127.56 98.29 127.12 100.51 125.95 103.69C120.07 119.85 114.69 136.18 108.95 152.37C108.23 154.37 106.6 156.99 104.82 157.57C90.45 162.27 75.95 166.57 61.49 170.95C60.89 171.12 60.31 171.18 58.73 171.49ZM34.03 127.96C34.8482 129.757 35.7905 131.494 36.85 133.16C43.91 142.46 51.17 151.6 58.09 161C60.09 163.67 61.86 164 64.8 163.09C75.91 159.55 87.14 156.4 98.18 152.67C99.3118 152.186 100.336 151.483 101.195 150.601C102.053 149.718 102.728 148.675 103.18 147.53C108.473 133.003 113.523 118.393 118.33 103.7C118.97 101.76 118.82 98.65 117.65 97.17C110.55 88.17 103.13 79.39 95.6 70.72C94.976 70.1112 94.2205 69.6538 93.3917 69.3834C92.5629 69.1129 91.683 69.0365 90.82 69.16C78.39 72.95 66.05 76.98 53.73 81.16C52.26 81.66 50.41 82.87 49.91 84.16C44.49 98.63 39.33 113.21 34.03 127.96Z" fill="white"/>
<path d="M159.14 217C158.14 226.17 157.01 236.45 155.97 246.74C155.63 250.07 154.55 252.13 150.78 253.04C136.66 256.49 122.68 260.52 108.55 263.91C105.808 264.443 102.965 263.902 100.61 262.4C87.39 252.913 74.3467 243.17 61.48 233.17C60.6121 232.394 59.9137 231.447 59.4285 230.389C58.9432 229.331 58.6816 228.184 58.66 227.02C59.25 213.24 60.1 199.46 61.32 185.72C61.5773 184.53 62.1104 183.417 62.8763 182.47C63.6423 181.524 64.6197 180.77 65.73 180.27C79.39 175.9 93.15 171.8 107.03 168.16C109.37 167.55 112.88 168.95 115.03 170.53C129.03 180.86 142.84 191.44 156.6 202.09C157.926 203.266 158.791 204.875 159.04 206.63C159.41 209.68 159.14 212.78 159.14 217ZM65.25 217.08L64.25 217.41C65.43 221.55 65.31 227.23 68.04 229.55C78.82 238.71 90.45 246.88 101.9 255.23C103.58 256.46 106.25 257.58 108.08 257.15C120.92 254.09 133.67 250.68 146.4 247.15C147.124 246.868 147.771 246.421 148.292 245.844C148.813 245.268 149.192 244.578 149.4 243.83C150.653 232.983 151.693 222.113 152.52 211.22C152.534 210.336 152.364 209.458 152.019 208.644C151.675 207.829 151.164 207.096 150.52 206.49C137.607 196.303 124.583 186.253 111.45 176.34C110.637 175.797 109.723 175.423 108.763 175.239C107.803 175.056 106.816 175.066 105.86 175.27C94.4 178.36 82.99 181.62 71.69 185.27C70.6778 185.723 69.7828 186.402 69.0738 187.255C68.3648 188.108 67.8607 189.112 67.6 190.19C66.52 199.1 65.99 208.1 65.25 217.08Z" fill="white"/>
<path d="M103.99 54.48C112.37 42.67 120.37 31.22 128.65 19.99C129.65 18.64 132.22 17.77 134.04 17.8C150.49 18.09 166.95 18.51 183.38 19.21C185.779 19.4165 188.023 20.4817 189.7 22.21C199.193 32.7367 208.49 43.4367 217.59 54.31C218.111 55.1726 218.418 56.1472 218.486 57.1527C218.554 58.1582 218.381 59.1653 217.98 60.09C211.473 70.6967 204.73 81.1533 197.75 91.46C196.88 92.75 194.4 93.59 192.69 93.56C175.69 93.33 158.69 92.68 141.69 92.61C137.69 92.61 134.91 92.05 132.33 88.83C123.12 77.39 113.64 66.13 103.99 54.48ZM212.19 57.59C203.19 47.41 194.48 37.45 185.53 27.76C183.868 26.2392 181.721 25.3569 179.47 25.27C165.47 24.69 151.497 24.3033 137.55 24.11C135.73 24.11 133.19 25.02 132.17 26.39C125.47 35.39 119.09 44.74 112.41 54.24C120.36 63.79 128.19 72.97 135.72 82.38C137.9 85.1 140.16 85.78 143.53 85.78C159.01 85.78 174.53 86.18 189.98 86.3C191.42 86.3 193.52 85.79 194.22 84.77C200.26 75.95 206.05 66.95 212.19 57.59Z" fill="white"/>
<path d="M165.48 246.96C166.85 233.11 167.89 220.52 169.48 207.96C169.78 205.62 171.91 202.96 173.94 201.49C187.75 191.28 201.86 181.49 215.64 171.21C218.27 169.21 220.24 168.49 223.31 169.72C233.79 173.887 244.317 177.927 254.89 181.84C258.25 183.08 259.04 185.1 258.58 188.4C256.7 201.84 255.03 215.32 253.1 228.76C252.88 230.594 252.007 232.288 250.64 233.53C237.06 243.47 223.34 253.21 209.64 263.01C206.64 265.18 203.64 265.29 200.02 263.95C190.53 260.41 180.91 257.2 171.24 254.19C166.73 252.83 164.16 250.78 165.48 246.96ZM172.48 242.64C171.2 246.26 173.34 248.23 177.57 249.46C185.1 251.66 192.41 254.61 199.99 256.57C202.72 257.28 206.64 257.06 208.84 255.57C220.84 247.36 232.55 238.71 244.16 229.96C245.802 228.458 246.864 226.426 247.16 224.22C248.71 213.61 249.76 202.93 251.38 192.34C251.88 189.03 251.13 187.41 248.06 186.28C240.16 183.37 232.41 180.06 224.44 177.38C223.336 177.127 222.193 177.099 221.078 177.296C219.963 177.494 218.9 177.913 217.95 178.53C205.137 187.463 192.397 196.587 179.73 205.9C177.707 207.383 176.287 209.545 175.73 211.99C174.39 221.85 173.6 231.79 172.52 242.64H172.48Z" fill="white"/>
<path d="M283.44 135.83C283.15 137.512 282.642 139.149 281.93 140.7C276.5 150.37 270.77 159.87 265.42 169.58C263.27 173.47 260.84 173.64 257.08 172.11C246.63 167.85 235.99 164.11 225.59 159.7C223.575 158.597 222.064 156.76 221.37 154.57C216.11 137.617 211.03 120.617 206.13 103.57C205.649 101.696 205.884 99.7097 206.79 98C213.29 87.4 219.977 76.9133 226.85 66.54C227.67 65.31 230.52 64.15 231.73 64.66C243.18 69.43 254.49 74.52 265.78 79.66C267.127 80.3568 268.189 81.503 268.78 82.9C275.51 99.64 281.2 116.66 283.44 135.83ZM260.04 166.01C264.85 157.63 269.77 150.06 273.6 142.01C275.43 138.17 276.6 133.01 275.6 129.01C272.31 115.48 268.02 102.18 263.88 88.87C263.234 86.9138 261.893 85.2627 260.11 84.23C252.11 80.23 243.83 76.65 235.72 72.81C232.97 71.51 231.28 71.96 229.61 74.67C224.61 82.82 219.24 90.75 214.24 98.91C213.402 100.487 213.184 102.321 213.63 104.05C218.143 119.65 222.81 135.207 227.63 150.72C228.06 152.15 229.14 153.96 230.38 154.47C239.89 158.34 249.54 161.96 260.04 166.01Z" fill="white"/>
<path d="M196.55 16.11C201.63 12.65 206.46 12.23 211.55 14.83C230.7 24.66 247.55 37.4 260.85 54.43C263.91 58.36 265.09 63.75 267.13 68.43L265.4 69.63C259.4 67 253.63 63.72 247.4 61.9C234.57 58.12 225 50.73 217.24 39.9C211.28 31.53 203.73 24.27 196.55 16.11Z" fill="#dba504"/>
<path d="M262.4 228.49C264.05 213.12 265.66 197.94 267.32 182.77C267.395 181.812 267.675 180.881 268.14 180.04C275.14 168.44 282.24 156.87 290.82 144.95C291.59 149.01 293.25 153.12 292.99 157.1C291.37 181.44 283.8 203.91 270.99 224.71C268.73 228.45 266.08 229.55 262.4 228.49Z" fill="#dba504"/>
<path d="M0 148.27C0.18 112.78 11.24 81.32 33.42 53.63C34.82 59.82 36.26 65.63 37.42 71.54C37.6195 73.2028 37.4066 74.889 36.8 76.45C31.0067 93.8633 25.16 111.257 19.26 128.63C18.9466 129.714 18.3851 130.71 17.62 131.54C11.87 137.02 6.07 142.47 0 148.27ZM8 129.34L9.35 130.12C10.64 128.37 12.46 126.81 13.15 124.86C18.89 108.45 24.45 91.97 29.98 75.49C30.2511 74.1379 30.3552 72.7575 30.29 71.38C17.9021 88.3827 10.2139 108.35 8 129.27V129.34Z" fill="white"/>
<path d="M104.4 286.88C72.22 277.2 47.24 258.18 27.46 231.52C35.71 233.25 43.52 234.78 51.26 236.57C52.83 236.94 54.26 238.22 55.59 239.23C69.34 249.23 83.1 259.23 96.73 269.43C98.4141 270.815 99.704 272.619 100.47 274.66C102.01 278.58 103.08 282.7 104.4 286.88ZM89.7 272.88L47.49 242.02L46.36 243.61C58.8 256.27 72.57 266.97 89.73 272.89L89.7 272.88Z" fill="white"/>
<path d="M113.49 4.61999C140.3 -2.49002 166.6 -1.23002 192.49 7.24997L192.78 9.05997C189.54 9.73997 186.29 11.06 183.05 11C165.43 10.82 147.78 10.7 130.19 9.67999C124.57 9.34999 119.06 6.37999 113.49 4.61999Z" fill="white"/>
<path d="M202.15 279.73C207.37 275.47 212.45 271.04 217.82 266.98C229.58 258.09 241.45 249.35 253.35 240.65C255.35 239.19 257.73 238.26 261.12 236.46C254.07 251.46 221.41 276.23 203.26 281.28L202.15 279.73Z" fill="white"/>
<path d="M274.38 75.37C284.992 93.0278 291.095 113.026 292.15 133.6C286.23 114.187 280.307 94.7767 274.38 75.37Z" fill="white"/>
<path d="M337.86 143.62V55.62H397.2V66H349.5V93.27H390.78V103.67H349.5V143.67L337.86 143.62Z" fill="#dba504" stroke="#dba504" stroke-width="5" stroke-miterlimit="10"/>
<path d="M406.92 111.76C406.92 99.9667 410.2 91.23 416.76 85.55C422.24 80.83 428.907 78.47 436.76 78.47C445.52 78.47 452.677 81.34 458.23 87.08C463.783 92.82 466.563 100.747 466.57 110.86C466.57 119.06 465.343 125.51 462.89 130.21C460.48 134.848 456.741 138.661 452.15 141.16C447.441 143.762 442.14 145.106 436.76 145.06C427.84 145.06 420.63 142.2 415.13 136.48C409.63 130.76 406.893 122.52 406.92 111.76ZM418.02 111.76C418.02 119.92 419.8 126.03 423.36 130.09C425.029 132.007 427.09 133.544 429.403 134.597C431.716 135.65 434.228 136.195 436.77 136.195C439.312 136.195 441.824 135.65 444.137 134.597C446.45 133.544 448.511 132.007 450.18 130.09C453.74 126.01 455.517 119.79 455.51 111.43C455.51 103.557 453.723 97.59 450.15 93.53C448.479 91.6209 446.42 90.091 444.11 89.0428C441.799 87.9946 439.292 87.4524 436.755 87.4524C434.218 87.4524 431.711 87.9946 429.4 89.0428C427.09 90.091 425.031 91.6209 423.36 93.53C419.8 97.53 418.02 103.607 418.02 111.76Z" fill="#dba504" stroke="#dba504" stroke-width="5" stroke-miterlimit="10"/>
<path d="M475.25 111.76C475.25 99.9667 478.53 91.23 485.09 85.55C490.57 80.83 497.237 78.47 505.09 78.47C513.85 78.47 521.01 81.34 526.57 87.08C532.13 92.82 534.91 100.747 534.91 110.86C534.91 119.06 533.68 125.51 531.22 130.21C528.816 134.853 525.075 138.667 520.48 141.16C515.771 143.762 510.47 145.106 505.09 145.06C496.17 145.06 488.96 142.2 483.46 136.48C477.96 130.76 475.223 122.52 475.25 111.76ZM486.35 111.76C486.35 119.92 488.13 126.03 491.69 130.09C493.359 132.007 495.42 133.544 497.733 134.597C500.046 135.65 502.558 136.195 505.1 136.195C507.642 136.195 510.154 135.65 512.467 134.597C514.78 133.544 516.841 132.007 518.51 130.09C522.07 126.01 523.85 119.79 523.85 111.43C523.85 103.557 522.06 97.59 518.48 93.53C516.809 91.6209 514.75 90.091 512.44 89.0428C510.129 87.9946 507.622 87.4524 505.085 87.4524C502.548 87.4524 500.041 87.9946 497.73 89.0428C495.42 90.091 493.361 91.6209 491.69 93.53C488.13 97.53 486.35 103.607 486.35 111.76Z" fill="#dba504" stroke="#dba504" stroke-width="5" stroke-miterlimit="10"/>
<path d="M571.19 133.96L572.75 143.5C570.071 144.112 567.337 144.447 564.59 144.5C560.67 144.5 557.63 143.88 555.47 142.64C553.454 141.556 551.851 139.837 550.91 137.75C550.03 135.75 549.59 131.5 549.59 125V88.27H541.67V79.87H549.59V64.13L560.33 57.65V79.91H571.19V88.27H560.33V125.52C560.33 128.6 560.52 130.58 560.9 131.46C561.28 132.34 561.932 133.076 562.76 133.56C563.899 134.144 565.172 134.413 566.45 134.34C568.037 134.321 569.62 134.194 571.19 133.96Z" fill="#dba504" stroke="#dba504" stroke-width="5" stroke-miterlimit="10"/>
<path d="M591.73 143.62H581.73V55.62H592.53V87C594.552 84.2905 597.188 82.0997 600.221 80.608C603.255 79.1164 606.6 78.3665 609.98 78.42C613.817 78.4023 617.613 79.2106 621.11 80.79C624.488 82.2757 627.453 84.5616 629.75 87.45C632.134 90.5489 633.933 94.0562 635.06 97.8C636.367 102.008 637.015 106.394 636.98 110.8C636.98 121.707 634.28 130.143 628.88 136.11C623.48 142.077 617 145.057 609.44 145.05C605.925 145.153 602.444 144.34 599.339 142.69C596.234 141.04 593.612 138.61 591.73 135.64V143.62ZM591.59 111.27C591.59 118.91 592.63 124.43 594.71 127.83C598.103 133.39 602.7 136.17 608.5 136.17C613.22 136.17 617.3 134.12 620.74 130.02C624.18 125.92 625.9 119.813 625.9 111.7C625.9 103.38 624.25 97.24 620.95 93.28C617.65 89.32 613.65 87.34 608.95 87.34C604.23 87.34 600.15 89.39 596.71 93.49C593.27 97.59 591.563 103.517 591.59 111.27Z" fill="#dba504" stroke="#dba504" stroke-width="5" stroke-miterlimit="10"/>
<path d="M691.66 135.76C688.247 138.799 684.341 141.234 680.11 142.96C676.301 144.38 672.265 145.091 668.2 145.06C661.2 145.06 655.82 143.35 652.06 139.93C650.222 138.287 648.765 136.263 647.791 133.998C646.817 131.734 646.349 129.284 646.42 126.82C646.4 123.918 647.092 121.056 648.437 118.484C649.781 115.912 651.736 113.71 654.13 112.07C656.507 110.47 659.133 109.274 661.9 108.53C665.063 107.788 668.269 107.247 671.5 106.91C680.22 105.87 686.64 104.63 690.76 103.19C690.8 101.71 690.82 100.77 690.82 100.37C690.82 95.97 689.8 92.87 687.76 91.07C685 88.63 680.9 87.41 675.46 87.41C670.38 87.41 666.63 88.3 664.21 90.08C661.79 91.86 660 95.01 658.84 99.53L648.28 98.09C648.996 94.1237 650.618 90.3763 653.02 87.14C655.533 84.1452 658.839 81.92 662.56 80.72C667.214 79.1405 672.106 78.3793 677.02 78.47C681.518 78.3253 686.007 78.9752 690.28 80.39C693.156 81.3238 695.74 82.9881 697.78 85.22C699.475 87.3643 700.627 89.8855 701.14 92.57C701.595 95.8828 701.775 99.2275 701.68 102.57V116.96C701.68 127 701.91 133.333 702.37 135.96C702.839 138.647 703.762 141.234 705.1 143.61H693.82C692.637 141.143 691.905 138.485 691.66 135.76ZM690.76 111.65C686.84 113.25 680.96 114.607 673.12 115.72C669.906 116.064 666.743 116.789 663.7 117.88C661.962 118.6 660.479 119.822 659.44 121.39C658.211 123.317 657.713 125.621 658.038 127.883C658.363 130.146 659.488 132.217 661.21 133.72C663.39 135.64 666.58 136.6 670.78 136.6C674.654 136.671 678.481 135.73 681.88 133.87C684.985 132.191 687.483 129.578 689.02 126.4C690.18 123.96 690.76 120.36 690.76 115.6V111.65Z" fill="#dba504" stroke="#dba504" stroke-width="5" stroke-miterlimit="10"/>
<path d="M718.18 143.62V55.62H728.98V143.62H718.18Z" fill="#dba504" stroke="#dba504" stroke-width="5" stroke-miterlimit="10"/>
<path d="M745.47 143.62V55.62H756.27V143.62H745.47Z" fill="#dba504" stroke="#dba504" stroke-width="5" stroke-miterlimit="10"/>
<path d="M355.86 246V185.134H333V177H388V185.134H365.054V245.95L355.86 246Z" fill="white"/>
<path d="M381 220.982C381 211.778 383.636 204.96 388.908 200.529C393.394 196.82 399.135 194.853 405.026 195.009C412.065 195.009 417.819 197.249 422.288 201.73C426.757 206.212 428.994 212.4 429 220.293C429 226.69 428.01 231.732 426.029 235.42C424.09 239.044 421.073 242.019 417.368 243.956C413.585 245.989 409.325 247.037 405 246.999C397.817 246.999 392.019 244.758 387.609 240.276C383.197 235.795 380.994 229.363 381 220.982ZM389.921 220.982C389.921 227.352 391.365 232.114 394.251 235.269C395.595 236.763 397.251 237.962 399.111 238.783C400.971 239.605 402.991 240.03 405.035 240.03C407.079 240.03 409.099 239.605 410.958 238.783C412.819 237.962 414.476 236.763 415.818 235.269C418.705 232.081 420.134 227.229 420.105 220.713C420.105 214.552 418.662 209.892 415.775 206.739C414.431 205.252 412.774 204.06 410.917 203.243C409.059 202.427 407.044 202.005 405.005 202.005C402.966 202.005 400.95 202.427 399.093 203.243C397.236 204.06 395.579 205.252 394.235 206.739C391.331 209.871 389.878 214.619 389.878 220.982H389.921Z" fill="white"/>
<path d="M469.995 245.878V239.576C466.784 244.53 462.059 247.006 455.819 247C451.854 247.021 447.974 245.876 444.677 243.71C441.22 241.443 438.49 238.258 436.8 234.523C434.864 230.266 433.91 225.639 434.007 220.976C433.939 216.337 434.798 211.732 436.535 207.419C438.019 203.608 440.673 200.346 444.128 198.09C447.491 195.931 451.428 194.804 455.442 194.85C458.281 194.799 461.088 195.454 463.601 196.757C465.899 197.951 467.893 199.644 469.429 201.708V177H478V245.878H469.995ZM442.834 220.976C442.834 227.358 444.203 232.138 446.94 235.316C449.682 238.479 452.939 240.065 456.633 240.065C458.474 240.072 460.292 239.666 461.95 238.88C463.609 238.094 465.064 236.947 466.206 235.527C468.829 232.507 470.141 227.895 470.141 221.692C470.141 214.865 468.803 209.855 466.129 206.66C464.972 205.162 463.477 203.949 461.763 203.117C460.048 202.285 458.159 201.859 456.247 201.869C454.398 201.852 452.572 202.259 450.912 203.059C449.251 203.857 447.804 205.027 446.683 206.475C444.122 209.534 442.84 214.368 442.834 220.976Z" fill="white"/>
<path d="M523.448 239.747C520.774 242.119 517.71 244.018 514.391 245.36C511.419 246.462 508.269 247.017 505.097 247C499.606 247 495.381 245.665 492.424 243C490.984 241.717 489.842 240.138 489.078 238.372C488.314 236.605 487.949 234.694 488.006 232.772C487.99 230.508 488.534 228.274 489.589 226.266C490.643 224.26 492.176 222.54 494.054 221.26C495.919 220.014 497.977 219.08 500.147 218.495C502.626 217.917 505.14 217.495 507.674 217.234C514.507 216.417 519.542 215.451 522.781 214.335C522.781 213.175 522.781 212.444 522.781 212.133C522.781 208.696 521.986 206.252 520.38 204.881C518.218 202.977 515.005 202.024 510.741 202.024C506.753 202.024 503.81 202.719 501.912 204.108C500.02 205.495 498.608 207.949 497.688 211.478L489.399 210.352C489.965 207.259 491.239 204.336 493.125 201.814C495.089 199.464 497.682 197.717 500.602 196.772C504.252 195.541 508.087 194.947 511.941 195.016C515.469 194.902 518.991 195.407 522.341 196.512C524.61 197.235 526.649 198.536 528.255 200.284C529.588 201.954 530.492 203.921 530.891 206.016C531.248 208.589 531.389 211.185 531.314 213.781V225.016C531.314 232.859 531.494 237.811 531.855 239.873C532.227 241.97 532.953 243.99 534 245.848H525.145C524.221 243.931 523.646 241.864 523.448 239.747ZM522.746 220.932C519.671 222.175 515.058 223.237 508.907 224.117C506.388 224.384 503.909 224.948 501.524 225.797C500.146 226.353 498.969 227.307 498.144 228.537C497.368 229.728 496.959 231.118 496.97 232.537C496.946 233.602 497.161 234.66 497.599 235.632C498.037 236.605 498.688 237.468 499.504 238.159C501.194 239.655 503.694 240.403 507.006 240.403C510.071 240.472 513.098 239.736 515.784 238.268C518.218 236.96 520.175 234.922 521.378 232.445C522.291 230.545 522.746 227.73 522.746 224.041V220.932Z" fill="white"/>
<path d="M543.546 263.983L542.575 256.167C544.194 256.622 545.868 256.869 547.555 256.905C549.158 256.974 550.755 256.658 552.197 255.984C553.359 255.365 554.338 254.475 555.043 253.395C556.104 251.404 556.994 249.334 557.706 247.206C557.862 246.74 558.123 246.06 558.478 245.172L539 196H548.379L559.06 224.42C560.442 228.021 561.68 231.811 562.774 235.788C563.766 232.003 564.962 228.269 566.357 224.602L577.324 196H586L566.496 245.911C565.111 249.715 563.482 253.433 561.62 257.046C560.386 259.441 558.561 261.512 556.301 263.078C554.174 264.392 551.682 265.06 549.151 264.996C547.238 264.952 545.344 264.61 543.546 263.983Z" fill="white"/>
<path d="M576 246V240H583V246H576Z" fill="white"/>
<path d="M590 245.984V206.903H596.249V212.449C597.628 210.383 599.542 208.701 601.804 207.572C604.066 206.443 606.596 205.904 609.141 206.014C611.451 205.99 613.743 206.419 615.875 207.28C617.692 207.963 619.282 209.117 620.468 210.61C621.528 212.082 622.258 213.75 622.609 215.51C622.921 217.64 623.046 219.793 622.985 221.944V245.984H616.124V222.202C616.221 220.162 615.946 218.122 615.312 216.172C614.775 214.819 613.772 213.683 612.468 212.962C611.018 212.15 609.364 211.737 607.688 211.77C604.901 211.718 602.199 212.675 600.108 214.454C598.026 216.243 596.984 219.643 596.984 224.657V246L590 245.984Z" fill="white"/>
<path d="M658.969 232.823L665.803 233.651C664.914 237.27 662.79 240.482 659.781 242.755C656.02 245.166 651.55 246.286 647.071 245.938C642.592 245.592 638.358 243.797 635.029 240.837C631.677 237.383 630 232.548 630 226.331C630 219.896 631.691 214.904 635.074 211.353C636.751 209.591 638.792 208.203 641.062 207.281C643.332 206.36 645.779 205.927 648.233 206.01C650.625 205.932 653.003 206.356 655.211 207.259C657.418 208.16 659.403 209.516 661.03 211.235C664.343 214.716 666 219.635 666 225.991C666 226.374 666 226.95 666 227.718H636.881C636.867 231.263 638.156 234.694 640.51 237.383C641.568 238.458 642.847 239.303 644.26 239.863C645.674 240.421 647.192 240.684 648.715 240.63C650.943 240.694 653.128 240.033 654.933 238.755C656.837 237.204 658.239 235.143 658.969 232.823ZM637.243 222.33H659.044C658.965 219.727 658.095 217.203 656.545 215.085C655.564 213.885 654.314 212.922 652.888 212.275C651.464 211.626 649.907 211.311 648.339 211.353C646.926 211.315 645.517 211.556 644.202 212.064C642.884 212.57 641.686 213.332 640.676 214.304C638.537 216.457 637.31 219.327 637.243 222.33Z" fill="white"/>
<path d="M680.26 246L668 206.016H675.019L681.39 229.146L683.771 237.734L685.859 229.485L692.23 206.077H699.219L705.219 229.207L707.214 236.84L709.517 229.13L716.398 206H723L710.46 245.984H703.409L697.024 222.037L695.476 215.221L687.358 245.984L680.26 246Z" fill="white"/>
<path d="M725 233.795L731.659 232.774C731.876 235.047 732.971 237.16 734.729 238.691C736.8 240.164 739.341 240.891 741.909 240.746C744.355 240.929 746.79 240.285 748.798 238.927C749.485 238.425 750.046 237.776 750.434 237.033C750.822 236.291 751.028 235.47 751.039 234.638C751.053 233.944 750.878 233.259 750.529 232.652C750.181 232.044 749.676 231.534 749.059 231.178C746.866 230.169 744.552 229.428 742.169 228.972C738.657 228.219 735.217 227.174 731.89 225.852C730.153 225.082 728.689 223.838 727.676 222.273C726.664 220.71 726.152 218.894 726.197 217.052C726.183 215.396 726.599 213.763 727.409 212.304C728.211 210.866 729.344 209.626 730.724 208.68C732.032 207.817 733.485 207.176 735.02 206.788C736.913 206.256 738.877 205.991 740.849 206.003C743.65 205.956 746.437 206.398 749.075 207.304C751.129 207.969 752.94 209.193 754.291 210.824C755.531 212.595 756.325 214.623 756.607 216.741L750.025 217.598C749.814 215.791 748.877 214.136 747.417 212.984C745.63 211.77 743.461 211.184 741.279 211.329C738.963 211.13 736.642 211.649 734.651 212.807C734.058 213.188 733.566 213.703 733.222 214.304C732.877 214.906 732.688 215.581 732.673 216.268C732.667 217.096 732.96 217.901 733.501 218.546C734.179 219.339 735.07 219.937 736.078 220.277C736.753 220.513 738.733 221.075 742.032 221.932C745.422 222.715 748.758 223.703 752.021 224.89C753.806 225.598 755.344 226.784 756.455 228.308C757.549 229.964 758.084 231.908 757.989 233.868C757.979 236.052 757.295 238.185 756.025 239.991C754.622 241.974 752.649 243.517 750.348 244.43C747.694 245.512 744.835 246.047 741.954 245.997C736.784 245.997 732.856 244.962 730.14 242.891C727.316 240.578 725.485 237.336 725 233.795Z" fill="white"/>
<path d="M758 157H335V164H758V157Z" fill="#dba504"/>
</g>
</svg>
